<svg width="24" height="24" viewBox="0 0 24 24" fill="none" xmlns="http://www.w3.org/2000/svg">
<g clip-path="url(#clip0_5856_2784)">
<path d="M21.4286 2.57143H18.8571V0.857159C18.8571 0.383755 18.4734 0 18 0C17.5266 0 17.1428 0.383755 17.1428 0.857159V2.57143H6.85712V0.857159C6.85712 0.383755 6.47337 0 6.00001 0C5.52666 0 5.14285 0.383755 5.14285 0.857159V2.57143H2.57143C1.15127 2.57143 0 3.72269 0 5.14285V21.4286C0 22.8487 1.15127 24 2.57143 24H21.4286C22.8487 24 24 22.8487 24 21.4286V5.14285C24 3.72269 22.8487 2.57143 21.4286 2.57143ZM22.2857 21.4286C22.2857 21.902 21.9019 22.2857 21.4285 22.2857H2.57143C2.09802 22.2857 1.71427 21.902 1.71427 21.4286V10.2857H22.2857V21.4286ZM22.2857 8.57144H1.71427V5.14285C1.71427 4.66945 2.09802 4.28569 2.57143 4.28569H5.14285V5.99996C5.14285 6.47337 5.52661 6.85712 6.00001 6.85712C6.47342 6.85712 6.85717 6.47337 6.85717 5.99996V4.28569H17.1429V5.99996C17.1429 6.47337 17.5266 6.85712 18 6.85712C18.4734 6.85712 18.8572 6.47337 18.8572 5.99996V4.28569H21.4286C21.902 4.28569 22.2858 4.66945 22.2858 5.14285V8.57144H22.2857Z" fill="#89C249"/>
<path d="M6.86049 12H5.14622C4.67282 12 4.28906 12.3838 4.28906 12.8572C4.28906 13.3306 4.67282 13.7143 5.14622 13.7143H6.86049C7.33389 13.7143 7.71765 13.3306 7.71765 12.8572C7.71765 12.3838 7.33389 12 6.86049 12Z" fill="#89C249"/>
<path d="M12.8605 12H11.1462C10.6728 12 10.2891 12.3838 10.2891 12.8572C10.2891 13.3306 10.6728 13.7143 11.1462 13.7143H12.8605C13.3339 13.7143 13.7176 13.3306 13.7176 12.8572C13.7176 12.3838 13.3339 12 12.8605 12Z" fill="#89C249"/>
<path d="M18.8605 12H17.1462C16.6728 12 16.2891 12.3838 16.2891 12.8572C16.2891 13.3306 16.6728 13.7143 17.1462 13.7143H18.8605C19.3339 13.7143 19.7176 13.3306 19.7176 12.8572C19.7176 12.3838 19.3338 12 18.8605 12Z" fill="#89C249"/>
<path d="M6.86049 15.4287H5.14622C4.67282 15.4287 4.28906 15.8125 4.28906 16.2859C4.28906 16.7593 4.67282 17.143 5.14622 17.143H6.86049C7.33389 17.143 7.71765 16.7593 7.71765 16.2859C7.71765 15.8125 7.33389 15.4287 6.86049 15.4287Z" fill="#89C249"/>
<path d="M12.8605 15.4287H11.1462C10.6728 15.4287 10.2891 15.8125 10.2891 16.2859C10.2891 16.7593 10.6728 17.143 11.1462 17.143H12.8605C13.3339 17.143 13.7176 16.7593 13.7176 16.2859C13.7176 15.8125 13.3339 15.4287 12.8605 15.4287Z" fill="#89C249"/>
<path d="M18.8605 15.4287H17.1462C16.6728 15.4287 16.2891 15.8125 16.2891 16.2859C16.2891 16.7593 16.6728 17.143 17.1462 17.143H18.8605C19.3339 17.143 19.7176 16.7593 19.7176 16.2859C19.7176 15.8125 19.3338 15.4287 18.8605 15.4287Z" fill="#89C249"/>
<path d="M6.86049 18.8574H5.14622C4.67282 18.8574 4.28906 19.2412 4.28906 19.7146C4.28906 20.188 4.67282 20.5717 5.14622 20.5717H6.86049C7.33389 20.5717 7.71765 20.1879 7.71765 19.7145C7.71765 19.2411 7.33389 18.8574 6.86049 18.8574Z" fill="#89C249"/>
<path d="M12.8605 18.8574H11.1462C10.6728 18.8574 10.2891 19.2412 10.2891 19.7146C10.2891 20.188 10.6728 20.5717 11.1462 20.5717H12.8605C13.3339 20.5717 13.7176 20.188 13.7176 19.7146C13.7176 19.2412 13.3339 18.8574 12.8605 18.8574Z" fill="#89C249"/>
<path d="M18.8605 18.8574H17.1462C16.6728 18.8574 16.2891 19.2412 16.2891 19.7146C16.2891 20.188 16.6728 20.5717 17.1462 20.5717H18.8605C19.3339 20.5717 19.7176 20.188 19.7176 19.7146C19.7176 19.2412 19.3338 18.8574 18.8605 18.8574Z" fill="#89C249"/>
</g>
<defs>
<clipPath id="clip0_5856_2784">
<rect width="24" height="24" fill="white"/>
</clipPath>
</defs>
</svg>
