<svg width="17" height="11" viewBox="0 0 17 11" fill="none" xmlns="http://www.w3.org/2000/svg">
<path d="M16.1131 10.2164C15.7267 10.2706 13.8487 10.2164 13.751 10.2164C13.2655 10.2213 12.7976 10.0349 12.4484 9.69748C12.0511 9.31538 11.6929 8.89419 11.3129 8.49689C11.1976 8.37578 11.0735 8.26331 10.9417 8.16038C10.6312 7.92373 10.3251 7.97801 10.1796 8.34275C10.0657 8.73807 9.98726 9.14277 9.94518 9.55202C9.93839 9.72442 9.86349 9.88708 9.7369 10.0043C9.61031 10.1215 9.44239 10.1837 9.26998 10.1773C9.01379 10.1903 8.75761 10.1968 8.5036 10.1903C7.57957 10.1855 6.66976 9.96235 5.8484 9.539C4.9617 9.04349 4.1888 8.36749 3.57965 7.55465C2.60503 6.2677 1.76274 4.88571 1.06557 3.42965C1.02866 3.35584 0.297017 1.79919 0.279648 1.72755C0.234288 1.62554 0.229957 1.50999 0.267555 1.40488C0.305153 1.29976 0.381792 1.21317 0.481556 1.16308C0.61182 1.11314 3.02386 1.16308 3.06294 1.16308C3.24255 1.16137 3.418 1.21711 3.56369 1.32218C3.70937 1.42724 3.81766 1.57612 3.87274 1.74709C4.31883 2.88436 4.92804 3.95066 5.68123 4.91248C5.78628 5.04212 5.90992 5.15551 6.04814 5.249C6.08376 5.28338 6.12792 5.30763 6.17605 5.31922C6.22418 5.33082 6.27453 5.32935 6.32191 5.31496C6.36928 5.30057 6.41194 5.27379 6.4455 5.23738C6.47905 5.20098 6.50226 5.15627 6.51274 5.10788C6.60816 4.79398 6.66431 4.46947 6.67991 4.14176C6.69294 3.49044 6.67991 3.05623 6.643 2.40492C6.65613 2.18296 6.58119 1.96479 6.43446 1.79773C6.28773 1.63068 6.08105 1.52823 5.85925 1.51262C5.6682 1.48005 5.64215 1.32373 5.77458 1.16742C6.0286 0.843931 6.38031 0.791826 6.76241 0.772286C7.33991 0.73972 7.91958 0.772286 8.49925 0.772286H8.62517C8.87967 0.771653 9.13357 0.797115 9.38287 0.848273C9.52865 0.878129 9.66087 0.954284 9.75985 1.06539C9.85883 1.1765 9.91927 1.31661 9.93215 1.46485C9.96141 1.6289 9.9745 1.79542 9.97123 1.96202C9.95603 2.67196 9.92129 3.38189 9.91261 4.094C9.90743 4.37527 9.93291 4.65627 9.9886 4.93202C10.0733 5.30979 10.3316 5.40531 10.5965 5.12959C10.9266 4.77532 11.2292 4.39646 11.5018 3.9963C11.992 3.26769 12.3957 2.48445 12.7046 1.66242C12.8718 1.24123 12.9998 1.14788 13.4536 1.14788H16.0133C16.166 1.14533 16.3182 1.16583 16.4648 1.20867C16.5166 1.22246 16.565 1.24675 16.6069 1.28002C16.6489 1.31329 16.6836 1.35482 16.7088 1.40206C16.7341 1.44929 16.7493 1.5012 16.7537 1.55458C16.758 1.60796 16.7513 1.66166 16.7341 1.71235C16.5844 2.25699 16.3275 2.76628 15.9785 3.21038C15.4575 3.94636 14.9104 4.66498 14.3763 5.38143C14.3087 5.47517 14.2471 5.57306 14.1918 5.67452C13.992 6.03492 14.0072 6.239 14.296 6.54294C14.7606 7.02058 15.2577 7.46998 15.705 7.96064C16.0348 8.31817 16.3327 8.70392 16.5951 9.11347C16.9251 9.64321 16.7232 10.1295 16.1131 10.2164Z" fill="white"/>
</svg>
